<svg width="437" height="153" viewBox="0 0 437 153" fill="none" xmlns="http://www.w3.org/2000/svg">
<g clip-path="url(#clip0_80_11)">
<path class="text-color-black" d="M87.76 117.72H88.4C89.0827 117.72 89.68 117.507 90.192 117.08C90.704 116.568 91.1307 115.971 91.472 115.288C91.8987 114.605 92.1973 113.88 92.368 113.112C92.624 112.344 92.752 111.619 92.752 110.936V42.456C92.752 41.8587 92.624 41.176 92.368 40.408C92.1973 39.64 91.8987 38.9147 91.472 38.232C91.1307 37.5493 90.704 36.9947 90.192 36.568C89.68 36.056 89.0827 35.8 88.4 35.8H87.76V34.52H106.192V35.8H105.552C104.869 35.8 104.272 36.056 103.76 36.568C103.248 36.9947 102.821 37.5493 102.48 38.232C102.139 38.9147 101.84 39.64 101.584 40.408C101.413 41.176 101.328 41.8587 101.328 42.456V114.264H129.36C130.981 114.264 132.389 113.88 133.584 113.112C134.779 112.344 135.76 111.405 136.528 110.296C137.381 109.101 137.979 107.864 138.32 106.584C138.747 105.219 138.96 103.981 138.96 102.872H140.24V119H87.76V117.72ZM149.18 93.144C149.521 96.1307 150.247 98.9893 151.356 101.72C152.465 104.365 153.916 106.712 155.708 108.76C157.585 110.808 159.847 112.472 162.492 113.752C165.137 114.947 168.209 115.544 171.708 115.544C173.585 115.544 175.548 115.288 177.596 114.776C179.729 114.179 181.692 113.368 183.484 112.344C185.276 111.32 186.855 110.083 188.22 108.632C189.671 107.096 190.652 105.389 191.164 103.512H192.316V113.112C191.804 113.112 191.207 113.283 190.524 113.624C189.927 113.965 189.201 114.392 188.348 114.904C186.641 115.928 184.337 117.037 181.436 118.232C178.535 119.341 174.695 119.896 169.916 119.896C166.076 119.896 162.407 119.341 158.908 118.232C155.495 117.123 152.465 115.416 149.82 113.112C147.175 110.808 145.041 107.864 143.42 104.28C141.884 100.696 141.116 96.4293 141.116 91.48C141.116 88.3227 141.628 85.1227 142.652 81.88C143.761 78.6373 145.383 75.736 147.516 73.176C149.735 70.5307 152.551 68.3973 155.964 66.776C159.377 65.1547 163.473 64.344 168.252 64.344C172.519 64.344 176.231 65.0693 179.388 66.52C182.631 67.9707 185.276 69.976 187.324 72.536C189.457 75.096 191.036 78.1253 192.06 81.624C193.084 85.1227 193.596 88.9627 193.596 93.144H149.18ZM167.74 68.568C164.753 68.568 162.151 69.1653 159.932 70.36C157.799 71.5547 155.964 73.0907 154.428 74.968C152.892 76.8453 151.697 78.9787 150.844 81.368C149.991 83.7573 149.436 86.1467 149.18 88.536H185.66C185.575 86.0613 185.105 83.6293 184.252 81.24C183.484 78.8507 182.375 76.7173 180.924 74.84C179.473 72.9627 177.639 71.4693 175.42 70.36C173.201 69.1653 170.641 68.568 167.74 68.568ZM211.689 69.592V100.44C211.689 102.659 211.732 104.664 211.817 106.456C211.902 108.248 212.116 109.741 212.457 110.936C212.798 112.131 213.31 113.069 213.993 113.752C214.676 114.349 215.614 114.648 216.809 114.648C218.601 114.648 220.265 113.795 221.801 112.088C223.422 110.381 224.446 108.333 224.873 105.944H226.025V115.288C225.257 115.288 224.617 115.544 224.105 116.056C223.422 116.653 222.441 117.293 221.161 117.976C219.966 118.659 218.132 119 215.657 119C212.585 119 210.196 118.403 208.489 117.208C206.782 116.013 205.545 114.435 204.777 112.472C204.009 110.509 203.54 108.333 203.369 105.944C203.284 103.555 203.241 101.123 203.241 98.648V69.592H196.073V65.24H203.241V53.848C203.241 52.3973 203.028 51.0747 202.601 49.88C202.26 48.6 201.022 47.9173 198.889 47.832V46.552L211.689 42.456V65.24H226.025V69.592H211.689ZM243.069 69.592V100.44C243.069 102.659 243.112 104.664 243.197 106.456C243.282 108.248 243.496 109.741 243.837 110.936C244.178 112.131 244.69 113.069 245.373 113.752C246.056 114.349 246.994 114.648 248.189 114.648C249.981 114.648 251.645 113.795 253.181 112.088C254.802 110.381 255.826 108.333 256.253 105.944H257.405V115.288C256.637 115.288 255.997 115.544 255.485 116.056C254.802 116.653 253.821 117.293 252.541 117.976C251.346 118.659 249.512 119 247.037 119C243.965 119 241.576 118.403 239.869 117.208C238.162 116.013 236.925 114.435 236.157 112.472C235.389 110.509 234.92 108.333 234.749 105.944C234.664 103.555 234.621 101.123 234.621 98.648V69.592H227.453V65.24H234.621V53.848C234.621 52.3973 234.408 51.0747 233.981 49.88C233.64 48.6 232.402 47.9173 230.269 47.832V46.552L243.069 42.456V65.24H257.405V69.592H243.069ZM312.593 110.68C312.593 111.277 312.678 112.003 312.849 112.856C313.02 113.624 313.233 114.392 313.489 115.16C313.83 115.843 314.257 116.44 314.769 116.952C315.281 117.464 315.878 117.72 316.561 117.72V119H304.145V111.96C302.865 113.837 300.988 115.672 298.513 117.464C296.038 119.256 292.838 120.152 288.913 120.152C283.964 120.152 280.038 119.299 277.137 117.592C274.236 115.885 272.017 113.709 270.481 111.064C268.945 108.419 267.964 105.56 267.537 102.488C267.11 99.3307 266.897 96.3867 266.897 93.656V75.352C266.897 74.584 266.854 73.8587 266.769 73.176C266.769 72.408 266.598 71.7253 266.257 71.128C266.001 70.5307 265.574 70.0613 264.977 69.72C264.38 69.2933 263.526 69.08 262.417 69.08V67.928L275.345 63.832V96.472C275.345 102.957 276.753 107.736 279.569 110.808C282.385 113.88 285.841 115.416 289.937 115.416C292.156 115.416 294.118 114.947 295.825 114.008C297.617 112.984 299.11 111.789 300.305 110.424C301.585 109.059 302.524 107.651 303.121 106.2C303.804 104.749 304.145 103.555 304.145 102.616V75.352C304.145 74.584 304.102 73.8587 304.017 73.176C304.017 72.408 303.846 71.7253 303.505 71.128C303.249 70.5307 302.822 70.0613 302.225 69.72C301.628 69.2933 300.774 69.08 299.665 69.08V67.928L312.593 63.832V110.68ZM371.142 114.392C370.459 114.392 369.819 114.563 369.222 114.904C368.625 115.16 367.942 115.501 367.174 115.928C365.723 116.781 363.889 117.677 361.67 118.616C359.451 119.469 356.55 119.896 352.966 119.896C348.614 119.896 344.561 119.213 340.806 117.848C337.137 116.397 333.937 114.435 331.206 111.96C328.561 109.4 326.47 106.456 324.934 103.128C323.483 99.7147 322.758 96.0453 322.758 92.12C322.758 88.4507 323.398 84.952 324.678 81.624C326.043 78.296 327.963 75.352 330.438 72.792C332.913 70.232 335.942 68.184 339.526 66.648C343.195 65.112 347.334 64.344 351.942 64.344C355.099 64.344 357.659 64.728 359.622 65.496C361.585 66.1787 363.249 66.8613 364.614 67.544C365.382 67.9707 366.107 68.312 366.79 68.568C367.558 68.824 368.326 68.952 369.094 68.952V78.68H367.814C367.387 77.0587 366.619 75.6507 365.51 74.456C364.401 73.176 363.121 72.1093 361.67 71.256C360.219 70.4027 358.641 69.7627 356.934 69.336C355.227 68.9093 353.563 68.696 351.942 68.696C348.443 68.696 345.371 69.336 342.726 70.616C340.081 71.8107 337.905 73.432 336.198 75.48C334.491 77.4427 333.211 79.704 332.358 82.264C331.505 84.824 331.078 87.4693 331.078 90.2C331.078 93.3573 331.59 96.472 332.614 99.544C333.638 102.531 335.089 105.219 336.966 107.608C338.929 109.997 341.275 111.917 344.006 113.368C346.737 114.819 349.809 115.544 353.222 115.544C355.611 115.544 357.787 115.203 359.75 114.52C361.798 113.837 363.505 112.941 364.87 111.832C366.321 110.723 367.473 109.528 368.326 108.248C369.179 106.883 369.691 105.603 369.862 104.408H371.142V114.392ZM381.58 93.144C381.921 96.1307 382.647 98.9893 383.756 101.72C384.865 104.365 386.316 106.712 388.108 108.76C389.985 110.808 392.247 112.472 394.892 113.752C397.537 114.947 400.609 115.544 404.108 115.544C405.985 115.544 407.948 115.288 409.996 114.776C412.129 114.179 414.092 113.368 415.884 112.344C417.676 111.32 419.255 110.083 420.62 108.632C422.071 107.096 423.052 105.389 423.564 103.512H424.716V113.112C424.204 113.112 423.607 113.283 422.924 113.624C422.327 113.965 421.601 114.392 420.748 114.904C419.041 115.928 416.737 117.037 413.836 118.232C410.935 119.341 407.095 119.896 402.316 119.896C398.476 119.896 394.807 119.341 391.308 118.232C387.895 117.123 384.865 115.416 382.22 113.112C379.575 110.808 377.441 107.864 375.82 104.28C374.284 100.696 373.516 96.4293 373.516 91.48C373.516 88.3227 374.028 85.1227 375.052 81.88C376.161 78.6373 377.783 75.736 379.916 73.176C382.135 70.5307 384.951 68.3973 388.364 66.776C391.777 65.1547 395.873 64.344 400.652 64.344C404.919 64.344 408.631 65.0693 411.788 66.52C415.031 67.9707 417.676 69.976 419.724 72.536C421.857 75.096 423.436 78.1253 424.46 81.624C425.484 85.1227 425.996 88.9627 425.996 93.144H381.58ZM400.14 68.568C397.153 68.568 394.551 69.1653 392.332 70.36C390.199 71.5547 388.364 73.0907 386.828 74.968C385.292 76.8453 384.097 78.9787 383.244 81.368C382.391 83.7573 381.836 86.1467 381.58 88.536H418.06C417.975 86.0613 417.505 83.6293 416.652 81.24C415.884 78.8507 414.775 76.7173 413.324 74.84C411.873 72.9627 410.039 71.4693 407.82 70.36C405.601 69.1653 403.041 68.568 400.14 68.568Z" fill="black"/>
<path d="M75.6553 75.5981C75.6553 79.3001 74.1405 82.6085 71.6967 84.8626C70.7599 85.8791 69.5832 86.6476 68.2541 87.0655C67.5109 87.3055 66.7187 87.4322 65.9032 87.4322C65.8103 87.4322 65.7097 87.4322 65.6168 87.4241H65.5961C65.5187 87.4241 65.4387 87.416 65.3613 87.4079H65.2839C65.2271 87.3998 65.1626 87.3998 65.0903 87.3998C64.0323 87.3998 63.0104 87.5347 62.0246 87.7881C56.3369 89.2225 52.1228 94.5666 52.1228 100.941C52.1228 104.993 53.8234 109.019 56.5227 111.847C51.0286 107.331 46.75 102.127 43.7204 96.2896C43.7359 96.2303 43.741 96.1629 43.741 96.0954C43.8494 93.356 44.6055 91.4362 45.9991 90.4143C48.2984 88.7049 51.7719 89.7645 51.8286 89.7861C52.5796 90.026 53.3796 89.5839 53.6144 88.8019C53.8492 88.0119 53.4286 87.1733 52.6777 86.928C52.4764 86.8687 47.8339 85.4046 44.3604 87.9661C43.132 88.8693 42.2236 90.1393 41.6378 91.7436C39.5734 86.4669 38.4095 80.7265 38.1592 74.5303C38.2882 74.4117 38.394 74.2553 38.474 74.0827C41.8675 66.3497 49.4055 68.2371 49.7487 68.3261C50.5125 68.5364 51.2919 68.0565 51.4932 67.2584C51.6944 66.4603 51.2351 65.646 50.4712 65.4357C47.6145 64.651 42.0404 64.7184 38.1695 69.162C38.1695 69.0191 38.1773 68.8708 38.185 68.7279C38.4353 63.4053 39.3127 58.4927 40.314 54.4185C43.901 48.91 49.9887 51.9999 50.2519 52.1428C50.9512 52.5149 51.8106 52.2237 52.1667 51.493C52.5306 50.7542 52.2441 49.8591 51.5448 49.4843C49.4003 48.341 45.3797 47.3407 41.8004 49.1634C43.0494 45.2457 44.1307 42.8783 44.1591 42.8244C44.5101 42.0856 44.2081 41.1904 43.501 40.8318C42.794 40.4732 41.9372 40.7806 41.594 41.5194C41.452 41.8187 39.3798 46.3107 37.6431 53.2456C37.6431 53.2537 37.6431 53.2618 37.6353 53.2618C37.5992 53.4101 37.5579 53.5611 37.5218 53.7175C37.1863 55.0899 36.8715 56.554 36.5799 58.0909C33.9219 55.5591 29.5426 55.0306 29.2845 55.0009C28.5052 54.912 27.7981 55.5078 27.7129 56.3221C27.6278 57.1445 28.1903 57.8833 28.9774 57.9723C29.0419 57.9804 35.6922 58.854 35.7438 62.6962C35.7438 62.8391 35.7644 62.9712 35.8083 63.1007C35.5941 64.8263 35.4367 66.6247 35.3438 68.4744C35.1734 71.9688 35.2509 75.8273 35.7799 79.8663C32.8303 78.7096 29.0058 79.1572 28.3787 79.2462C27.5994 79.3513 27.042 80.0982 27.1504 80.9179C27.251 81.7322 27.9581 82.3065 28.7503 82.2013C31.0006 81.9021 35.8238 81.9776 36.3579 84.1508C36.407 84.353 36.4947 84.539 36.616 84.6954C37.7102 89.6755 39.545 94.8255 42.4662 99.8487C39.5089 99.7436 36.887 101.44 35.607 102.731C35.0418 103.305 35.0289 104.246 35.5786 104.837C35.8573 105.144 36.2289 105.293 36.6083 105.293C36.9592 105.293 37.3153 105.158 37.594 104.883C37.7437 104.734 41.3153 101.248 44.8894 103.704C44.9178 103.726 44.9539 103.742 44.9823 103.756C48.1771 108.25 51.0054 111.572 56.3989 115.506L53.3899 115.304C40.6727 113.834 28.5568 109.518 25.2614 97.2468C24.882 95.9256 24.8691 95.4699 24.6111 94.1568C24.6111 94.1568 24.6085 94.1514 24.6033 94.1406C24.3607 92.5875 24.2317 90.9913 24.2317 89.3628V89.3412C24.2317 88.2357 23.3517 87.3864 22.2963 87.4592C22.0021 87.4807 21.7027 87.4969 21.4034 87.4969C20.2602 87.4969 19.1531 87.3243 18.1028 87.0035H18.095C17.6796 86.8174 17.246 86.661 16.8022 86.5262H16.7944C12.5493 84.6442 9.57907 80.2546 9.57907 75.1343C9.57907 68.3477 14.8151 62.8391 21.295 62.7798C21.3027 62.7798 21.3027 62.7879 21.3105 62.7798H21.5247C22.0459 62.742 22.4743 62.2945 22.5105 61.7282C22.5182 61.5557 22.495 61.3912 22.433 61.2429C22.4124 61.1755 22.384 61.1081 22.3401 61.0488C21.3621 59.0319 21.0834 56.5783 21.8188 54.0087C22.913 50.1934 26.4046 47.6858 30.2135 47.6858H30.3426C30.3993 47.6858 30.451 47.6858 30.5077 47.6939C31.0161 47.6265 31.4213 47.1951 31.4574 46.6424C31.4651 46.4698 31.4367 46.3053 31.38 46.157C30.5877 44.3505 30.2084 42.2986 30.3503 40.1469C30.771 33.9508 35.7309 28.9411 41.674 28.6957C48.4248 28.4207 53.9757 34.056 53.9757 41.0502C53.9757 42.8729 53.6041 44.5959 52.9254 46.1489C52.8609 46.2757 52.8247 46.4186 52.817 46.5669C52.7809 47.187 53.2247 47.7155 53.8028 47.7694C53.8105 47.7775 53.8234 47.7775 53.8312 47.7775H53.8957C53.9731 47.7775 54.0454 47.7694 54.1099 47.7559C54.146 47.7478 54.1821 47.7398 54.2105 47.7263C54.4686 47.7047 54.7318 47.6885 55.0028 47.6885C59.8827 47.6885 63.8336 51.8166 63.8336 56.9153C63.8336 58.3713 63.511 59.7518 62.9252 60.976C62.8891 61.0272 62.853 61.0892 62.8323 61.1485C62.8168 61.1782 62.8039 61.2078 62.7962 61.2375C62.76 61.3346 62.7394 61.4478 62.7317 61.5584C62.7239 61.6473 62.7317 61.7309 62.7523 61.8118C62.8013 62.1839 63.031 62.4994 63.3458 62.6558C63.3613 62.6558 63.3665 62.6639 63.382 62.6719C63.6452 62.7906 63.911 62.9173 64.1691 63.0521C64.3187 63.1276 64.4684 63.2004 64.6129 63.2759C70.058 63.6426 74.494 67.8597 75.4592 73.3467C75.596 74.0774 75.6605 74.8323 75.6605 75.6008L75.6553 75.5981Z" fill="#3F9C10"/>
<path d="M61.5681 62.6773C61.5319 62.7663 61.4905 62.8553 61.4388 62.9389C61.4465 62.9092 61.4595 62.8796 61.475 62.8499C61.4957 62.7906 61.5319 62.7313 61.5681 62.6773Z" fill="#3F9C10"/>
<path d="M58.9098 116.722C58.7885 116.761 58.6672 116.774 58.5459 116.774C58.4969 116.774 58.4376 116.774 58.3885 116.766C58.5666 116.758 58.7395 116.744 58.9098 116.72V116.722Z" fill="white"/>
<path d="M37.633 53.2645C37.5968 53.4128 37.5554 53.5638 37.5192 53.7202C37.5347 53.5638 37.5761 53.4128 37.633 53.2645Z" fill="white"/>
</g>
<defs>
<clipPath id="clip0_80_11">
<rect width="437" height="153" fill="white"/>
<style>
    .text-color-white {
        fill: black
    }

    @media (prefers-color-scheme: dark) {
      .text-color-black {
        fill: white
      }
    }
</style>
</clipPath>
</defs>
</svg>
