<?xml version="1.0" encoding="UTF-8" standalone="no"?>
<!-- Created with Inkscape (http://www.inkscape.org/) -->

<svg
   width="49.257244mm"
   height="25.264425mm"
   viewBox="0 0 49.257244 25.264426"
   version="1.1"
   id="svg1"
   inkscape:version="1.3.2 (091e20e, 2023-11-25)"
   sodipodi:docname="lettuce-logo.svg"
   xmlns:inkscape="http://www.inkscape.org/namespaces/inkscape"
   xmlns:sodipodi="http://sodipodi.sourceforge.net/DTD/sodipodi-0.dtd"
   xmlns="http://www.w3.org/2000/svg"
   xmlns:svg="http://www.w3.org/2000/svg">
  <sodipodi:namedview
     id="namedview1"
     pagecolor="#ffffff"
     bordercolor="#000000"
     borderopacity="0.25"
     inkscape:showpageshadow="2"
     inkscape:pageopacity="0.0"
     inkscape:pagecheckerboard="0"
     inkscape:deskcolor="#d1d1d1"
     inkscape:document-units="mm"
     inkscape:zoom="2.95719"
     inkscape:cx="104.49109"
     inkscape:cy="62.728468"
     inkscape:window-width="1640"
     inkscape:window-height="844"
     inkscape:window-x="0"
     inkscape:window-y="25"
     inkscape:window-maximized="0"
     inkscape:current-layer="layer1"
     showgrid="false" />
  <defs
     id="defs1" />
  <g
     inkscape:label="Layer 1"
     inkscape:groupmode="layer"
     id="layer1"
     transform="translate(-58.948663,-74.313737)">
    <path
       style="fill:#008000;stroke-width:0.388012"
       d="m 72.20442,90.021763 c 0,0 -5.937438,-1.7625 -9.014072,-7.15225 -3.076632,-5.389748 -1.408892,-6.969797 -2.24759,-5.644352 -2.159062,3.412098 -2.054254,8.255826 -1.700126,9.931529 0.354133,1.675698 2.057804,6.25371 3.454806,7.523004 1.39701,1.26929 7.918938,0.855399 7.918938,0.855399 z"
       id="path3"
       inkscape:label="path2"
       sodipodi:nodetypes="csscccc" />
    <path
       style="fill:#008000;stroke-width:0.388012"
       d="m 71.041958,89.842821 c 0,0 5.937438,-1.7625 9.014072,-7.15225 3.076632,-5.389748 1.408892,-6.969797 2.24759,-5.644352 2.159062,3.412098 2.054254,8.255826 1.700126,9.931529 -0.354133,1.675698 -2.057804,6.25371 -3.454806,7.523004 -1.39701,1.26929 -7.918938,0.855399 -7.918938,0.855399 z"
       id="path2"
       inkscape:label="path2"
       sodipodi:nodetypes="csscccc" />
    <circle
       style="fill:#008000;fill-opacity:1;stroke:none;stroke-width:0.564999"
       id="path1"
       cx="71.580521"
       cy="86.945595"
       r="12.631858" />
    <ellipse
       style="opacity:0.673709;fill:#ececec;fill-opacity:1;stroke:none;stroke-width:0.504444"
       id="circle6"
       cx="71.580521"
       cy="87.53656"
       rx="10.563484"
       ry="12.040894" />
    <path
       style="opacity:0.673709;fill:#ececec;fill-opacity:1;stroke:none;stroke-width:0.408986"
       id="ellipse6"
       sodipodi:type="arc"
       sodipodi:cx="-53.435532"
       sodipodi:cy="-98.751694"
       sodipodi:rx="6.9438286"
       sodipodi:ry="12.040894"
       sodipodi:start="4.8723177"
       sodipodi:end="0.93616001"
       sodipodi:arc-type="arc"
       d="m -52.329742,-110.63893 a 6.9438286,12.040894 0 0 1 5.643359,9.05604 6.9438286,12.040894 0 0 1 -2.632259,12.527576"
       sodipodi:open="true"
       transform="rotate(169.73943)" />
    <path
       style="opacity:0.673709;fill:#ececec;fill-opacity:1;stroke:none;stroke-width:0.408986"
       id="path7"
       sodipodi:type="arc"
       sodipodi:cx="87.665474"
       sodipodi:cy="-73.209587"
       sodipodi:rx="6.9438286"
       sodipodi:ry="12.040894"
       sodipodi:start="4.8723177"
       sodipodi:end="0.93616001"
       sodipodi:arc-type="arc"
       d="m 88.771264,-85.096822 a 6.9438286,12.040894 0 0 1 5.643358,9.056042 6.9438286,12.040894 0 0 1 -2.632258,12.527572"
       sodipodi:open="true"
       transform="matrix(0.98400785,0.17812508,0.17812508,-0.98400785,0,0)" />
    <path
       style="opacity:0.673709;fill:#ececec;fill-opacity:1;stroke:none;stroke-width:0.408986"
       id="path8"
       sodipodi:type="arc"
       sodipodi:cx="68.288269"
       sodipodi:cy="-89.226555"
       sodipodi:rx="6.9438286"
       sodipodi:ry="12.040894"
       sodipodi:start="4.8723177"
       sodipodi:end="0.93616001"
       sodipodi:arc-type="arc"
       d="m 69.394059,-101.11379 a 6.9438286,12.040894 0 0 1 5.643359,9.056042 6.9438286,12.040894 0 0 1 -2.632259,12.527573"
       sodipodi:open="true"
       transform="matrix(0.9996094,-0.02794711,-0.02794711,-0.9996094,0,0)" />
    <path
       style="opacity:0.673709;fill:#ececec;fill-opacity:1;stroke:none;stroke-width:0.408986"
       id="path9"
       sodipodi:type="arc"
       sodipodi:cx="-75.631378"
       sodipodi:cy="-85.646248"
       sodipodi:rx="6.9438286"
       sodipodi:ry="12.040894"
       sodipodi:start="4.8723177"
       sodipodi:end="0.93616001"
       sodipodi:arc-type="arc"
       d="m -74.525588,-97.533483 a 6.9438286,12.040894 0 0 1 5.643358,9.056042 6.9438286,12.040894 0 0 1 -2.632259,12.527573"
       sodipodi:open="true"
       transform="rotate(-178.39854)" />
    <text
       xml:space="preserve"
       style="font-size:9.87778px;fill:#ff6600;fill-opacity:1"
       x="74.156906"
       y="90.766174"
       id="text1"><tspan
         sodipodi:role="line"
         id="tspan1"
         style="font-style:normal;font-variant:normal;font-weight:normal;font-stretch:normal;font-size:9.87778px;font-family:'Iosevka Nerd Font';-inkscape-font-specification:'Iosevka Nerd Font, Normal';font-variant-ligatures:normal;font-variant-caps:normal;font-variant-numeric:normal;font-variant-east-asian:normal;fill:#ff6600;fill-opacity:1;stroke-width:0.565"
         x="74.156906"
         y="90.766174">Le</tspan></text>
    <text
       xml:space="preserve"
       style="font-size:9.87777px;font-family:'Iosevka Nerd Font';-inkscape-font-specification:'Iosevka Nerd Font, Normal';opacity:1"
       x="84.064636"
       y="90.774788"
       id="text2"><tspan
         sodipodi:role="line"
         id="tspan2"
         style="stroke-width:0.565"
         x="84.064636"
         y="90.774788">ttuce</tspan></text>
  </g>
  <defs
     id="defs2">
    <style
       id="style1">
      #text2 {
        fill: black
      }
      @media (prefers-color-scheme: dark) {
        #text2 {
          fill: white
        }
      }
    </style>
  </defs>
</svg>
