<svg width="437" height="153" viewBox="0 0 437 153" fill="none" xmlns="http://www.w3.org/2000/svg">
<g clip-path="url(#clip0_80_11)">
<path d="M87.76 117.72H88.4C89.0827 117.72 89.68 117.507 90.192 117.08C90.704 116.568 91.1307 115.971 91.472 115.288C91.8987 114.605 92.1973 113.88 92.368 113.112C92.624 112.344 92.752 111.619 92.752 110.936V42.456C92.752 41.8587 92.624 41.176 92.368 40.408C92.1973 39.64 91.8987 38.9147 91.472 38.232C91.1307 37.5493 90.704 36.9947 90.192 36.568C89.68 36.056 89.0827 35.8 88.4 35.8H87.76V34.52H106.192V35.8H105.552C104.869 35.8 104.272 36.056 103.76 36.568C103.248 36.9947 102.821 37.5493 102.48 38.232C102.139 38.9147 101.84 39.64 101.584 40.408C101.413 41.176 101.328 41.8587 101.328 42.456V114.264H129.36C130.981 114.264 132.389 113.88 133.584 113.112C134.779 112.344 135.76 111.405 136.528 110.296C137.381 109.101 137.979 107.864 138.32 106.584C138.747 105.219 138.96 103.981 138.96 102.872H140.24V119H87.76V117.72ZM149.18 93.144C149.521 96.1307 150.247 98.9893 151.356 101.72C152.465 104.365 153.916 106.712 155.708 108.76C157.585 110.808 159.847 112.472 162.492 113.752C165.137 114.947 168.209 115.544 171.708 115.544C173.585 115.544 175.548 115.288 177.596 114.776C179.729 114.179 181.692 113.368 183.484 112.344C185.276 111.32 186.855 110.083 188.22 108.632C189.671 107.096 190.652 105.389 191.164 103.512H192.316V113.112C191.804 113.112 191.207 113.283 190.524 113.624C189.927 113.965 189.201 114.392 188.348 114.904C186.641 115.928 184.337 117.037 181.436 118.232C178.535 119.341 174.695 119.896 169.916 119.896C166.076 119.896 162.407 119.341 158.908 118.232C155.495 117.123 152.465 115.416 149.82 113.112C147.175 110.808 145.041 107.864 143.42 104.28C141.884 100.696 141.116 96.4293 141.116 91.48C141.116 88.3227 141.628 85.1227 142.652 81.88C143.761 78.6373 145.383 75.736 147.516 73.176C149.735 70.5307 152.551 68.3973 155.964 66.776C159.377 65.1547 163.473 64.344 168.252 64.344C172.519 64.344 176.231 65.0693 179.388 66.52C182.631 67.9707 185.276 69.976 187.324 72.536C189.457 75.096 191.036 78.1253 192.06 81.624C193.084 85.1227 193.596 88.9627 193.596 93.144H149.18ZM167.74 68.568C164.753 68.568 162.151 69.1653 159.932 70.36C157.799 71.5547 155.964 73.0907 154.428 74.968C152.892 76.8453 151.697 78.9787 150.844 81.368C149.991 83.7573 149.436 86.1467 149.18 88.536H185.66C185.575 86.0613 185.105 83.6293 184.252 81.24C183.484 78.8507 182.375 76.7173 180.924 74.84C179.473 72.9627 177.639 71.4693 175.42 70.36C173.201 69.1653 170.641 68.568 167.74 68.568ZM211.689 69.592V100.44C211.689 102.659 211.732 104.664 211.817 106.456C211.902 108.248 212.116 109.741 212.457 110.936C212.798 112.131 213.31 113.069 213.993 113.752C214.676 114.349 215.614 114.648 216.809 114.648C218.601 114.648 220.265 113.795 221.801 112.088C223.422 110.381 224.446 108.333 224.873 105.944H226.025V115.288C225.257 115.288 224.617 115.544 224.105 116.056C223.422 116.653 222.441 117.293 221.161 117.976C219.966 118.659 218.132 119 215.657 119C212.585 119 210.196 118.403 208.489 117.208C206.782 116.013 205.545 114.435 204.777 112.472C204.009 110.509 203.54 108.333 203.369 105.944C203.284 103.555 203.241 101.123 203.241 98.648V69.592H196.073V65.24H203.241V53.848C203.241 52.3973 203.028 51.0747 202.601 49.88C202.26 48.6 201.022 47.9173 198.889 47.832V46.552L211.689 42.456V65.24H226.025V69.592H211.689ZM243.069 69.592V100.44C243.069 102.659 243.112 104.664 243.197 106.456C243.282 108.248 243.496 109.741 243.837 110.936C244.178 112.131 244.69 113.069 245.373 113.752C246.056 114.349 246.994 114.648 248.189 114.648C249.981 114.648 251.645 113.795 253.181 112.088C254.802 110.381 255.826 108.333 256.253 105.944H257.405V115.288C256.637 115.288 255.997 115.544 255.485 116.056C254.802 116.653 253.821 117.293 252.541 117.976C251.346 118.659 249.512 119 247.037 119C243.965 119 241.576 118.403 239.869 117.208C238.162 116.013 236.925 114.435 236.157 112.472C235.389 110.509 234.92 108.333 234.749 105.944C234.664 103.555 234.621 101.123 234.621 98.648V69.592H227.453V65.24H234.621V53.848C234.621 52.3973 234.408 51.0747 233.981 49.88C233.64 48.6 232.402 47.9173 230.269 47.832V46.552L243.069 42.456V65.24H257.405V69.592H243.069ZM312.593 110.68C312.593 111.277 312.678 112.003 312.849 112.856C313.02 113.624 313.233 114.392 313.489 115.16C313.83 115.843 314.257 116.44 314.769 116.952C315.281 117.464 315.878 117.72 316.561 117.72V119H304.145V111.96C302.865 113.837 300.988 115.672 298.513 117.464C296.038 119.256 292.838 120.152 288.913 120.152C283.964 120.152 280.038 119.299 277.137 117.592C274.236 115.885 272.017 113.709 270.481 111.064C268.945 108.419 267.964 105.56 267.537 102.488C267.11 99.3307 266.897 96.3867 266.897 93.656V75.352C266.897 74.584 266.854 73.8587 266.769 73.176C266.769 72.408 266.598 71.7253 266.257 71.128C266.001 70.5307 265.574 70.0613 264.977 69.72C264.38 69.2933 263.526 69.08 262.417 69.08V67.928L275.345 63.832V96.472C275.345 102.957 276.753 107.736 279.569 110.808C282.385 113.88 285.841 115.416 289.937 115.416C292.156 115.416 294.118 114.947 295.825 114.008C297.617 112.984 299.11 111.789 300.305 110.424C301.585 109.059 302.524 107.651 303.121 106.2C303.804 104.749 304.145 103.555 304.145 102.616V75.352C304.145 74.584 304.102 73.8587 304.017 73.176C304.017 72.408 303.846 71.7253 303.505 71.128C303.249 70.5307 302.822 70.0613 302.225 69.72C301.628 69.2933 300.774 69.08 299.665 69.08V67.928L312.593 63.832V110.68ZM371.142 114.392C370.459 114.392 369.819 114.563 369.222 114.904C368.625 115.16 367.942 115.501 367.174 115.928C365.723 116.781 363.889 117.677 361.67 118.616C359.451 119.469 356.55 119.896 352.966 119.896C348.614 119.896 344.561 119.213 340.806 117.848C337.137 116.397 333.937 114.435 331.206 111.96C328.561 109.4 326.47 106.456 324.934 103.128C323.483 99.7147 322.758 96.0453 322.758 92.12C322.758 88.4507 323.398 84.952 324.678 81.624C326.043 78.296 327.963 75.352 330.438 72.792C332.913 70.232 335.942 68.184 339.526 66.648C343.195 65.112 347.334 64.344 351.942 64.344C355.099 64.344 357.659 64.728 359.622 65.496C361.585 66.1787 363.249 66.8613 364.614 67.544C365.382 67.9707 366.107 68.312 366.79 68.568C367.558 68.824 368.326 68.952 369.094 68.952V78.68H367.814C367.387 77.0587 366.619 75.6507 365.51 74.456C364.401 73.176 363.121 72.1093 361.67 71.256C360.219 70.4027 358.641 69.7627 356.934 69.336C355.227 68.9093 353.563 68.696 351.942 68.696C348.443 68.696 345.371 69.336 342.726 70.616C340.081 71.8107 337.905 73.432 336.198 75.48C334.491 77.4427 333.211 79.704 332.358 82.264C331.505 84.824 331.078 87.4693 331.078 90.2C331.078 93.3573 331.59 96.472 332.614 99.544C333.638 102.531 335.089 105.219 336.966 107.608C338.929 109.997 341.275 111.917 344.006 113.368C346.737 114.819 349.809 115.544 353.222 115.544C355.611 115.544 357.787 115.203 359.75 114.52C361.798 113.837 363.505 112.941 364.87 111.832C366.321 110.723 367.473 109.528 368.326 108.248C369.179 106.883 369.691 105.603 369.862 104.408H371.142V114.392ZM381.58 93.144C381.921 96.1307 382.647 98.9893 383.756 101.72C384.865 104.365 386.316 106.712 388.108 108.76C389.985 110.808 392.247 112.472 394.892 113.752C397.537 114.947 400.609 115.544 404.108 115.544C405.985 115.544 407.948 115.288 409.996 114.776C412.129 114.179 414.092 113.368 415.884 112.344C417.676 111.32 419.255 110.083 420.62 108.632C422.071 107.096 423.052 105.389 423.564 103.512H424.716V113.112C424.204 113.112 423.607 113.283 422.924 113.624C422.327 113.965 421.601 114.392 420.748 114.904C419.041 115.928 416.737 117.037 413.836 118.232C410.935 119.341 407.095 119.896 402.316 119.896C398.476 119.896 394.807 119.341 391.308 118.232C387.895 117.123 384.865 115.416 382.22 113.112C379.575 110.808 377.441 107.864 375.82 104.28C374.284 100.696 373.516 96.4293 373.516 91.48C373.516 88.3227 374.028 85.1227 375.052 81.88C376.161 78.6373 377.783 75.736 379.916 73.176C382.135 70.5307 384.951 68.3973 388.364 66.776C391.777 65.1547 395.873 64.344 400.652 64.344C404.919 64.344 408.631 65.0693 411.788 66.52C415.031 67.9707 417.676 69.976 419.724 72.536C421.857 75.096 423.436 78.1253 424.46 81.624C425.484 85.1227 425.996 88.9627 425.996 93.144H381.58ZM400.14 68.568C397.153 68.568 394.551 69.1653 392.332 70.36C390.199 71.5547 388.364 73.0907 386.828 74.968C385.292 76.8453 384.097 78.9787 383.244 81.368C382.391 83.7573 381.836 86.1467 381.58 88.536H418.06C417.975 86.0613 417.505 83.6293 416.652 81.24C415.884 78.8507 414.775 76.7173 413.324 74.84C411.873 72.9627 410.039 71.4693 407.82 70.36C405.601 69.1653 403.041 68.568 400.14 68.568Z" fill="black"/>
<path d="M76.4413 80.1179C76.4413 83.7384 74.9622 86.9739 72.5759 89.1784C71.6612 90.1725 70.5122 90.9241 69.2144 91.3328C68.4887 91.5675 67.7152 91.6914 66.9189 91.6914C66.8282 91.6914 66.7299 91.6914 66.6392 91.6835H66.619C66.5434 91.6835 66.4653 91.6756 66.3897 91.6677H66.3141C66.2587 91.6598 66.1957 91.6598 66.1251 91.6598C65.092 91.6598 64.0942 91.7916 63.1316 92.0395C57.5779 93.4423 53.463 98.6687 53.463 104.902C53.463 108.866 55.1236 112.803 57.7593 115.569C52.3946 111.152 48.2168 106.063 45.2585 100.354C45.2736 100.296 45.2787 100.23 45.2787 100.164C45.3845 97.4847 46.1228 95.6072 47.4835 94.6078C49.7287 92.936 53.1203 93.9723 53.1758 93.9934C53.909 94.2281 54.6902 93.7957 54.9195 93.031C55.1488 92.2583 54.7381 91.4383 54.0048 91.1983C53.8083 91.1403 49.2751 89.7084 45.8834 92.2135C44.684 93.0969 43.797 94.3389 43.225 95.9078C41.2091 90.7474 40.0727 85.1334 39.8283 79.0737C39.9543 78.9577 40.0576 78.8048 40.1357 78.636C43.4493 71.0733 50.8097 72.9191 51.1448 73.0062C51.8907 73.2118 52.6517 72.7425 52.8482 71.9619C53.0448 71.1814 52.5962 70.3851 51.8504 70.1794C49.0609 69.412 43.6181 69.478 39.8384 73.8236C39.8384 73.6838 39.8459 73.5388 39.8535 73.3991C40.0979 68.1938 40.9546 63.3893 41.9323 59.4049C45.4349 54.0177 51.3792 57.0396 51.6362 57.1793C52.319 57.5432 53.1581 57.2584 53.5059 56.5438C53.8612 55.8213 53.5815 54.9459 52.8986 54.5793C50.8046 53.4613 46.8787 52.483 43.3838 54.2655C44.6033 50.4341 45.6591 48.1189 45.6869 48.0661C46.0296 47.3436 45.7347 46.4682 45.0443 46.1174C44.3539 45.7667 43.5173 46.0673 43.1822 46.7899C43.0436 47.0826 41.0202 51.4757 39.3243 58.2578C39.3243 58.2658 39.3243 58.2737 39.3168 58.2737C39.2815 58.4187 39.2412 58.5664 39.2059 58.7193C38.8783 60.0615 38.5709 61.4933 38.2861 62.9964C35.6907 60.5203 31.4146 60.0035 31.1626 59.9745C30.4016 59.8875 29.7112 60.4702 29.628 61.2666C29.5449 62.0708 30.0942 62.7934 30.8628 62.8804C30.9257 62.8883 37.4193 63.7426 37.4697 67.5003C37.4697 67.64 37.4899 67.7692 37.5327 67.8958C37.3236 69.5834 37.1699 71.3423 37.0792 73.1512C36.9128 76.5686 36.9884 80.3421 37.505 84.2922C34.6248 83.1609 30.8905 83.5987 30.2782 83.6857C29.5172 83.7885 28.9729 84.519 29.0787 85.3206C29.177 86.1169 29.8674 86.6786 30.641 86.5758C32.8383 86.2831 37.5478 86.3569 38.0694 88.4823C38.1173 88.68 38.203 88.862 38.3214 89.0149C39.3898 93.8853 41.1814 98.9219 44.0339 103.834C41.1461 103.732 38.586 105.39 37.3362 106.653C36.7843 107.215 36.7717 108.135 37.3085 108.713C37.5806 109.013 37.9435 109.158 38.3139 109.158C38.6566 109.158 39.0043 109.027 39.2764 108.758C39.4226 108.613 42.91 105.203 46.4 107.605C46.4277 107.626 46.463 107.642 46.4907 107.655C49.6102 112.051 52.372 115.3 57.6384 119.147L54.7003 118.949C42.2826 117.512 30.452 113.29 27.2342 101.29C26.8638 99.9977 26.8512 99.5521 26.5992 98.2679C26.5992 98.2679 26.5967 98.2626 26.5917 98.2521C26.3548 96.7332 26.2288 95.1721 26.2288 93.5794V93.5583C26.2288 92.4772 25.3695 91.6466 24.3389 91.7178C24.0517 91.7389 23.7594 91.7547 23.4671 91.7547C22.3508 91.7547 21.2698 91.5859 20.2442 91.2721H20.2367C19.831 91.0902 19.4076 90.9372 18.9742 90.8054H18.9667C14.8216 88.9648 11.9212 84.6719 11.9212 79.6644C11.9212 73.0273 17.034 67.64 23.3612 67.582C23.3688 67.582 23.3688 67.5899 23.3764 67.582H23.5855C24.0945 67.5451 24.5128 67.1074 24.5481 66.5536C24.5556 66.3848 24.533 66.224 24.4725 66.079C24.4523 66.013 24.4246 65.9471 24.3818 65.8891C23.4268 63.9167 23.1546 61.5171 23.8728 59.0041C24.9412 55.2728 28.3505 52.8205 32.0698 52.8205H32.1957C32.2512 52.8205 32.3016 52.8205 32.357 52.8284C32.8534 52.7625 33.249 52.3406 33.2843 51.8C33.2919 51.6312 33.2641 51.4704 33.2087 51.3254C32.4351 49.5586 32.0647 47.5519 32.2033 45.4477C32.614 39.388 37.4571 34.4886 43.2603 34.2486C49.8521 33.9797 55.2723 39.4909 55.2723 46.331C55.2723 48.1136 54.9094 49.7986 54.2467 51.3175C54.1837 51.4414 54.1484 51.5811 54.1409 51.7262C54.1056 52.3327 54.539 52.8495 55.1034 52.9023C55.111 52.9102 55.1236 52.9102 55.1312 52.9102H55.1942C55.2698 52.9102 55.3403 52.9022 55.4033 52.8891C55.4386 52.8812 55.4739 52.8732 55.5016 52.8601C55.7536 52.839 56.0106 52.8231 56.2752 52.8231C61.0401 52.8231 64.898 56.8603 64.898 61.8467C64.898 63.2706 64.583 64.6207 64.011 65.8179C63.9757 65.868 63.9405 65.9287 63.9203 65.9867C63.9052 66.0157 63.8926 66.0447 63.885 66.0737C63.8497 66.1686 63.8296 66.2794 63.822 66.3875C63.8145 66.4745 63.822 66.5562 63.8422 66.6353C63.8901 66.9992 64.1143 67.3078 64.4217 67.4607C64.4369 67.4607 64.4419 67.4686 64.457 67.4765C64.7141 67.5926 64.9736 67.7165 65.2256 67.8483C65.3717 67.9222 65.5179 67.9934 65.659 68.0672C70.9758 68.4258 75.3074 72.55 76.2498 77.9161C76.3833 78.6307 76.4463 79.369 76.4463 80.1206L76.4413 80.1179Z" fill="#3F9C10"/>
<path d="M62.6859 67.4818C62.6505 67.5688 62.6101 67.6558 62.5596 67.7376C62.5672 67.7086 62.5798 67.6796 62.595 67.6506C62.6152 67.5926 62.6505 67.5345 62.6859 67.4818Z" fill="#3F9C10"/>
<path d="M60.0902 120.336C59.9717 120.374 59.8533 120.388 59.7349 120.388C59.687 120.388 59.6291 120.388 59.5812 120.38C59.755 120.371 59.9239 120.358 60.0902 120.334V120.336Z" fill="white"/>
<path d="M39.3145 58.2763C39.2791 58.4213 39.2387 58.569 39.2034 58.7219C39.2185 58.569 39.2589 58.4213 39.3145 58.2763Z" fill="white"/>
</g>
<defs>
<clipPath id="clip0_80_11">
<rect width="437" height="153" fill="white"/>
</clipPath>
</defs>
</svg>
